<svg xmlns="http://www.w3.org/2000/svg" version="1.1" xmlns:xlink="http://www.w3.org/1999/xlink" xmlns:svgjs="http://svgjs.dev/svgjs" width="1500" height="1500" viewBox="0 0 1500 1500"><rect width="1500" height="1500" fill="#ffffff"></rect><g transform="matrix(0.6666666666666666,0,0,0.6666666666666666,249.39393939393938,575.4475431769188)"><svg viewBox="0 0 396 138" data-background-color="#ffffff" preserveAspectRatio="xMidYMid meet" height="522" width="1500" xmlns="http://www.w3.org/2000/svg" xmlns:xlink="http://www.w3.org/1999/xlink"><g id="tight-bounds" transform="matrix(1,0,0,1,0.2400000000000091,0.2190777057046489)"><svg viewBox="0 0 395.52 137.56184458859067" height="137.56184458859067" width="395.52"><g><svg viewBox="0 0 395.52 137.56184458859067" height="137.56184458859067" width="395.52"><g><svg viewBox="0 0 395.52 137.56184458859067" height="137.56184458859067" width="395.52"><g id="textblocktransform"><svg viewBox="0 0 395.52 137.56184458859067" height="137.56184458859067" width="395.52" id="textblock"><g><svg viewBox="0 0 395.52 84.05418773466835" height="84.05418773466835" width="395.52"><g transform="matrix(1,0,0,1,0,0)"><svg width="395.52" viewBox="2.25 -36.5 199.74 42.45" height="84.05418773466835" data-palette-color="#1e55b3"><path d="M23.75 5.95L4.55 5.95Q3.35 5.95 2.8 5.4 2.25 4.85 2.25 3.65L2.25 3.65 2.25-28.75Q2.25-29.4 2.43-29.85 2.6-30.3 2.95-30.6L2.95-30.6 9.4-36.05Q9.65-36.25 10.08-36.38 10.5-36.5 11-36.5L11-36.5 26.95-36.5Q32.15-36.5 34.6-34.48 37.05-32.45 37.05-28.35L37.05-28.35 37.05-25.95Q37.05-24.2 36.58-22.95 36.1-21.7 35.15-20.95L35.15-20.95 35-20.85Q37.7-20.25 39.05-18.28 40.4-16.3 40.4-12.8L40.4-12.8 40.4-8.2Q40.4-5.95 39.75-4.33 39.1-2.7 37.8-1.6L37.8-1.6 31.35 3.85Q30.1 4.9 28.2 5.43 26.3 5.95 23.75 5.95L23.75 5.95ZM11 0L30.2 0Q35.15 0 37.52-2 39.9-4 39.9-8.2L39.9-8.2 39.9-12.8Q39.9-16.45 38.35-18.35 36.8-20.25 33.6-20.55L33.6-20.55Q35.1-21.2 35.83-22.53 36.55-23.85 36.55-25.95L36.55-25.95 36.55-28.35Q36.55-32.25 34.2-34.13 31.85-36 26.95-36L26.95-36 11-36Q10.05-36 9.63-35.58 9.2-35.15 9.2-34.2L9.2-34.2 9.2-1.8Q9.2-0.85 9.63-0.43 10.05 0 11 0L11 0ZM28.2-4.5L28.2-4.5 14.75-4.5 14.75-31.5 24.9-31.5Q26.95-31.5 28.25-31.08 29.55-30.65 30.25-29.93 30.95-29.2 31.2-28.25 31.45-27.3 31.45-26.2L31.45-26.2 31.45-23Q31.45-21.5 30.93-20.25 30.4-19 28.25-18.45L28.25-18.45Q30.3-18.45 31.6-18.03 32.9-17.6 33.6-16.82 34.3-16.05 34.52-15 34.75-13.95 34.75-12.7L34.75-12.7 34.75-9.5Q34.75-8.4 34.5-7.48 34.25-6.55 33.58-5.9 32.9-5.25 31.6-4.88 30.3-4.5 28.2-4.5ZM24.9-31L24.9-31 15.25-31 15.25-18.45 24.9-18.45Q26.95-18.45 28.15-18.82 29.35-19.2 29.98-19.83 30.6-20.45 30.78-21.28 30.95-22.1 30.95-23L30.95-23 30.95-26.2Q30.95-28.2 29.8-29.6 28.65-31 24.9-31ZM20.45-22.1L20.45-27.5 24.7-27.5Q25.65-27.5 26.13-27 26.6-26.5 26.6-25.5L26.6-25.5 26.6-24.1Q26.6-23.1 26.13-22.6 25.65-22.1 24.7-22.1L24.7-22.1 20.45-22.1ZM28.25-17.95L28.25-17.95 15.25-17.95 15.25-5 28.2-5Q31.95-5 33.1-6.23 34.25-7.45 34.25-9.5L34.25-9.5 34.25-12.7Q34.25-14.95 33.13-16.45 32-17.95 28.25-17.95ZM20.45-8.5L20.45-14.4 26.95-14.4Q27.9-14.4 28.38-13.93 28.85-13.45 28.85-12.45L28.85-12.45 28.85-10.5Q28.85-9.5 28.38-9 27.9-8.5 26.95-8.5L26.95-8.5 20.45-8.5ZM55.5-15.15L55.5-15.15 55.5-13.6 75-13.6 75-15.15Q75-16.5 74.77-17.65 74.55-18.8 74.2-19.8L74.2-19.8 70.75-27.95Q70.2-29.25 69.6-30.13 69-31 67.6-31L67.6-31 62.7-31Q61.2-31 60.6-30.13 60-29.25 59.5-28L59.5-28 56.3-19.8Q55.95-18.8 55.72-17.65 55.5-16.5 55.5-15.15ZM61.15-17.9L63.5-25.5Q63.7-25.95 63.92-26.15 64.15-26.35 64.45-26.35L64.45-26.35 65.7-26.35Q66-26.35 66.22-26.15 66.45-25.95 66.65-25.5L66.65-25.5 69-17.9 61.15-17.9ZM75.5-4.5L75-4.5 75-13.1 55.5-13.1 55.5-4.5 55-4.5 55-15.15Q55-16.55 55.22-17.73 55.45-18.9 55.85-20L55.85-20 59.05-28.2Q59.6-29.6 60.3-30.55 61-31.5 62.7-31.5L62.7-31.5 67.6-31.5Q69.25-31.5 69.92-30.55 70.6-29.6 71.2-28.15L71.2-28.15 74.65-20Q75.05-18.9 75.27-17.73 75.5-16.55 75.5-15.15L75.5-15.15 75.5-4.5ZM60.65-1.8L60.65-1.8 60.65-8.8 69.5-8.8 69.5-1.8Q69.5-0.85 69.97-0.43 70.45 0 71.45 0L71.45 0 79 0Q79.95 0 80.37-0.43 80.8-0.85 80.8-1.8L80.8-1.8 80.8-15Q80.8-16.5 80.32-18.45 79.85-20.4 78.85-23L78.85-23 74.5-34.35Q74.2-35.2 73.57-35.6 72.95-36 72-36L72-36 58.55-36Q57.55-36 56.92-35.6 56.3-35.2 56-34.35L56-34.35 51.65-23Q50.65-20.4 50.17-18.45 49.7-16.5 49.7-15L49.7-15 49.7-1.8Q49.7-0.85 50.12-0.43 50.55 0 51.5 0L51.5 0 58.85 0Q59.8 0 60.22-0.43 60.65-0.85 60.65-1.8ZM60.45 0.05L53.95 5.45Q53.75 5.65 53.32 5.8 52.9 5.95 52.4 5.95L52.4 5.95 45.05 5.95Q43.85 5.95 43.3 5.4 42.75 4.85 42.75 3.65L42.75 3.65 42.75-9.55Q42.75-11.1 43.22-13.08 43.7-15.05 44.75-17.75L44.75-17.75 49.05-29.05Q49.2-29.5 49.42-29.83 49.65-30.15 49.9-30.4L49.9-30.4 49.95-30.45 56.35-35.8Q56.75-36.15 57.3-36.33 57.85-36.5 58.55-36.5L58.55-36.5 72-36.5Q73.15-36.5 73.87-36.02 74.6-35.55 74.95-34.55L74.95-34.55 79.3-23.2Q80.35-20.5 80.82-18.53 81.3-16.55 81.3-15L81.3-15 81.3-1.8Q81.3-1.15 81.12-0.7 80.95-0.25 80.6 0.05L80.6 0.05 74.1 5.45Q73.9 5.65 73.47 5.8 73.05 5.95 72.55 5.95L72.55 5.95 65 5.95Q63.75 5.95 63.15 5.38 62.55 4.8 62.55 3.65L62.55 3.65 62.55-2.85 61.15-2.85 61.15-1.8Q61.15-1.15 60.97-0.7 60.8-0.25 60.45 0.05L60.45 0.05ZM97.9-17.7L97.9-4.5 97.4-4.5 97.4-31.5 97.9-31.5 97.9-18.2 108.75-18.2 114.5-31.5 115.05-31.5 109.3-18.2 111.34-18.2Q114.4-18.2 115.9-17.05 117.4-15.9 117.4-13.3L117.4-13.3 117.4-4.5 116.9-4.5 116.9-13.3Q116.9-15.7 115.5-16.7 114.09-17.7 111.34-17.7L111.34-17.7 97.9-17.7ZM93.75 0L101.5 0Q102.45 0 102.87-0.43 103.3-0.85 103.3-1.8L103.3-1.8 103.3-13.25 109.9-13.25Q110.7-13.25 111.09-12.8 111.5-12.35 111.5-11.55L111.5-11.55 111.5-1.8Q111.5-0.85 111.92-0.43 112.34 0 113.3 0L113.3 0 121 0Q121.95 0 122.37-0.43 122.8-0.85 122.8-1.8L122.8-1.8 122.8-15.9Q122.8-18.9 121.12-20.73 119.45-22.55 116.65-22.7L116.65-22.7 121.75-34.35Q122.09-35.15 121.8-35.58 121.5-36 120.65-36L120.65-36 112.95-36Q112-36 111.4-35.63 110.8-35.25 110.45-34.35L110.45-34.35 105.3-22.7 103.3-22.7 103.3-34.2Q103.3-35.15 102.87-35.58 102.45-36 101.5-36L101.5-36 93.75-36Q92.8-36 92.37-35.58 91.95-35.15 91.95-34.2L91.95-34.2 91.95-1.8Q91.95-0.85 92.37-0.43 92.8 0 93.75 0L93.75 0ZM103.09 0.05L103.09 0.05 96.59 5.45Q96.4 5.65 95.97 5.8 95.55 5.95 95.05 5.95L95.05 5.95 87.3 5.95Q86.09 5.95 85.55 5.4 85 4.85 85 3.65L85 3.65 85-28.75Q85-29.4 85.17-29.85 85.34-30.3 85.7-30.6L85.7-30.6 92.15-36.05Q92.4-36.25 92.82-36.38 93.25-36.5 93.75-36.5L93.75-36.5 101.5-36.5Q102.7-36.5 103.25-35.95 103.8-35.4 103.8-34.2L103.8-34.2 103.8-29.65Q103.95-29.85 104.09-30.08 104.25-30.3 104.45-30.45L104.45-30.45 110.9-35.9Q111.25-36.2 111.77-36.35 112.3-36.5 112.95-36.5L112.95-36.5 120.65-36.5Q121.9-36.5 122.3-35.88 122.7-35.25 122.2-34.15L122.2-34.15 117.4-23.15Q120.09-22.8 121.7-20.85 123.3-18.9 123.3-15.9L123.3-15.9 123.3-1.8Q123.3-1.15 123.12-0.7 122.95-0.25 122.59 0.05L122.59 0.05 116.09 5.45Q115.9 5.65 115.47 5.8 115.05 5.95 114.55 5.95L114.55 5.95 106.84 5.95Q105.65 5.95 105.09 5.4 104.55 4.85 104.55 3.65L104.55 3.65 104.55-6.1Q104.55-6.6 104.34-6.9 104.15-7.2 103.8-7.25L103.8-7.25 103.8-1.8Q103.8-1.15 103.62-0.7 103.45-0.25 103.09 0.05ZM152.79 5.95L152.79 5.95 129.59 5.95Q128.39 5.95 127.84 5.4 127.29 4.85 127.29 3.65L127.29 3.65 127.29-28.75Q127.29-29.4 127.47-29.85 127.64-30.3 127.99-30.6L127.99-30.6 134.44-36.05Q134.69-36.25 135.12-36.38 135.54-36.5 136.04-36.5L136.04-36.5 159.24-36.5Q160.44-36.5 160.99-35.95 161.54-35.4 161.54-34.2L161.54-34.2 161.54-28.35Q161.54-27.7 161.37-27.25 161.19-26.8 160.84-26.5L160.84-26.5 156.54-22.95Q157.04-22.7 157.27-22.2 157.49-21.7 157.49-20.9L157.49-20.9 157.49-15.55Q157.49-14.9 157.32-14.45 157.14-14 156.79-13.7L156.79-13.7 152.34-9.95 159.24-9.95Q160.44-9.95 160.99-9.4 161.54-8.85 161.54-7.65L161.54-7.65 161.54-1.8Q161.54-1.15 161.37-0.7 161.19-0.25 160.84 0.05L160.84 0.05 154.34 5.45Q154.14 5.65 153.72 5.8 153.29 5.95 152.79 5.95ZM136.04 0L159.24 0Q160.19 0 160.62-0.43 161.04-0.85 161.04-1.8L161.04-1.8 161.04-7.65Q161.04-8.6 160.62-9.03 160.19-9.45 159.24-9.45L159.24-9.45 145.44-9.45 145.44-13.75 155.19-13.75Q156.14-13.75 156.57-14.18 156.99-14.6 156.99-15.55L156.99-15.55 156.99-20.9Q156.99-21.85 156.57-22.28 156.14-22.7 155.19-22.7L155.19-22.7 145.44-22.7 145.44-26.55 159.24-26.55Q160.19-26.55 160.62-26.98 161.04-27.4 161.04-28.35L161.04-28.35 161.04-34.2Q161.04-35.15 160.62-35.58 160.19-36 159.24-36L159.24-36 136.04-36Q135.09-36 134.67-35.58 134.24-35.15 134.24-34.2L134.24-34.2 134.24-1.8Q134.24-0.85 134.67-0.43 135.09 0 136.04 0L136.04 0ZM140.19-5L156.54-5 156.54-4.5 139.69-4.5 139.69-31.5 156.54-31.5 156.54-31 140.19-31 140.19-18.45 152.49-18.45 152.49-17.95 140.19-17.95 140.19-5ZM183.74 5.95L183.74 5.95 175.64 5.95Q174.39 5.95 173.87 5.4 173.34 4.85 173.34 3.65L173.34 3.65 173.34-2.6 165.79-12.7Q164.59-14.3 164.19-15.5 163.79-16.7 163.79-19.15L163.79-19.15 163.79-28.75Q163.79-29.4 163.97-29.85 164.14-30.3 164.49-30.6L164.49-30.6 170.94-36.05Q171.19-36.25 171.62-36.38 172.04-36.5 172.54-36.5L172.54-36.5 180.24-36.5Q181.44-36.5 181.99-35.95 182.54-35.4 182.54-34.2L182.54-34.2 182.54-26Q182.54-25.55 182.59-25.1 182.64-24.65 182.89-24.15L182.89-24.15 183.49-23.3 183.49-28.75Q183.49-29.4 183.67-29.85 183.84-30.3 184.19-30.6L184.19-30.6 190.64-36.05Q190.89-36.25 191.31-36.38 191.74-36.5 192.24-36.5L192.24-36.5 199.69-36.5Q200.89-36.5 201.44-35.95 201.99-35.4 201.99-34.2L201.99-34.2 201.99-24.6Q201.99-22.15 201.59-20.95 201.19-19.75 199.99-18.15L199.99-18.15 192.49-8 192.49-1.8Q192.49-1.15 192.31-0.7 192.14-0.25 191.79 0.05L191.79 0.05 185.29 5.45Q185.09 5.65 184.67 5.8 184.24 5.95 183.74 5.95ZM182.09 0L190.19 0Q191.14 0 191.56-0.43 191.99-0.85 191.99-1.8L191.99-1.8 191.99-8.15 199.59-18.45Q200.69-20 201.09-21.15 201.49-22.3 201.49-24.6L201.49-24.6 201.49-34.2Q201.49-35.15 201.06-35.58 200.64-36 199.69-36L199.69-36 192.24-36Q191.29-36 190.87-35.58 190.44-35.15 190.44-34.2L190.44-34.2 190.44-26Q190.44-25.5 190.39-24.95 190.34-24.4 189.99-23.9L189.99-23.9 187.69-20.3Q187.44-19.85 187.17-19.65 186.89-19.45 186.49-19.45L186.49-19.45 185.99-19.45Q185.59-19.45 185.31-19.65 185.04-19.85 184.79-20.3L184.79-20.3 182.49-23.9Q182.14-24.4 182.09-24.95 182.04-25.5 182.04-26L182.04-26 182.04-34.2Q182.04-35.15 181.62-35.58 181.19-36 180.24-36L180.24-36 172.54-36Q171.59-36 171.17-35.58 170.74-35.15 170.74-34.2L170.74-34.2 170.74-24.6Q170.74-22.3 171.12-21.15 171.49-20 172.64-18.45L172.64-18.45 180.29-8.2 180.29-1.8Q180.29-0.85 180.72-0.43 181.14 0 182.09 0L182.09 0ZM186.74-13.05L186.74-13.05 186.39-13.05 186.39-4.5 185.89-4.5 185.89-13.05 185.39-13.05Q184.29-13.05 183.42-13.55 182.54-14.05 181.74-15.15L181.74-15.15 176.89-21.9Q176.34-22.65 176.24-23.65 176.14-24.65 176.14-25.75L176.14-25.75 176.14-31.5 176.64-31.5 176.64-25.75Q176.64-24.7 176.74-23.78 176.84-22.85 177.34-22.1L177.34-22.1 182.19-15.35Q182.84-14.35 183.69-13.95 184.54-13.55 185.39-13.55L185.39-13.55 186.74-13.55Q187.69-13.55 188.47-13.98 189.24-14.4 189.99-15.35L189.99-15.35 194.99-22.1Q195.49-22.75 195.59-23.73 195.69-24.7 195.69-25.75L195.69-25.75 195.69-31.5 196.19-31.5 196.19-25.75Q196.19-24.65 196.12-23.68 196.04-22.7 195.44-21.9L195.44-21.9 190.44-15.15Q189.64-14.05 188.77-13.55 187.89-13.05 186.74-13.05Z" opacity="1" transform="matrix(1,0,0,1,0,0)" fill="#1e55b3" class="wordmark-text-0" data-fill-palette-color="primary" id="text-0"></path></svg></g></svg></g><g transform="matrix(1,0,0,1,75.54432,103.89736415831791)"><svg viewBox="0 0 244.43135999999998 33.66448043027276" height="33.66448043027276" width="244.43135999999998"><g transform="matrix(1,0,0,1,0,0)"><svg width="244.43135999999998" viewBox="2 -35.35 260.27 35.85" height="33.66448043027276" data-palette-color="#ff585f"><path d="M11.15 0L2.2 0Q2 0 2-0.25L2-0.25 2.1-34.6Q2.1-34.8 2.3-34.8L2.3-34.8 11.9-34.8Q14.75-34.8 17-33.43 19.25-32.05 20.55-29.8 21.85-27.55 21.85-24.9L21.85-24.9Q21.85-22.75 20.88-20.9 19.9-19.05 18.55-17.9L18.55-17.9Q20-16.45 20.8-14.55 21.6-12.65 21.6-10.55L21.6-10.55Q21.6-7.65 20.2-5.25 18.8-2.85 16.43-1.43 14.05 0 11.15 0L11.15 0ZM8.1-28.85L8.1-21 11.9-21Q13.65-21 14.73-22.23 15.8-23.45 15.8-24.9L15.8-24.9Q15.8-26.5 14.65-27.68 13.5-28.85 11.9-28.85L11.9-28.85 8.1-28.85ZM8.1-14.95L8.05-6.1 11.15-6.1Q12.95-6.1 14.25-7.43 15.55-8.75 15.55-10.55L15.55-10.55Q15.55-12.35 14.25-13.65 12.95-14.95 11.15-14.95L11.15-14.95 8.1-14.95ZM22.5-0.25L22.5-0.25 28.7-34.6Q28.75-34.8 28.95-34.8L28.95-34.8 36.2-34.8Q36.4-34.8 36.45-34.6L36.45-34.6 42.4-0.25Q42.45 0 42.2 0L42.2 0 36.65 0Q36.45 0 36.4-0.25L36.4-0.25 35.85-3.9 29.05-3.9 28.5-0.25Q28.45 0 28.25 0L28.25 0 22.7 0Q22.5 0 22.5-0.25ZM32.3-23.3L30.05-9.25 34.85-9.25 32.8-23.3 32.5-25.15 32.3-23.3ZM51.4 0L45.75 0Q45.55 0 45.55-0.25L45.55-0.25 45.65-34.55Q45.65-34.8 45.84-34.8L45.84-34.8 51.45-34.8Q51.65-34.8 51.65-34.55L51.65-34.55 51.65-22.7 59.5-34.6Q59.65-34.8 59.84-34.8L59.84-34.8 65.59-34.8Q65.8-34.8 65.7-34.6L65.7-34.6 57.05-20.8 66.75-0.2Q66.84 0 66.5 0L66.5 0 60.4 0Q60.15 0 60.09-0.2L60.09-0.2 53.34-14.9 51.59-12.15 51.59-0.25Q51.59 0 51.4 0L51.4 0ZM85.34 0L69.19 0Q68.99 0 68.99-0.25L68.99-0.25 69.04-34.6Q69.04-34.8 69.24-34.8L69.24-34.8 85.29-34.8Q85.49-34.8 85.49-34.55L85.49-34.55 85.49-28.95Q85.49-28.75 85.29-28.75L85.29-28.75 75.04-28.75 75.04-20.95 85.29-20.95Q85.49-20.95 85.49-20.75L85.49-20.75 85.54-15.1Q85.54-14.9 85.34-14.9L85.34-14.9 75.04-14.9 75.04-6.15 85.34-6.15Q85.54-6.15 85.54-5.9L85.54-5.9 85.54-0.2Q85.54 0 85.34 0L85.34 0ZM99.19-0.05L90.24 0Q89.99 0 89.99-0.25L89.99-0.25 90.09-34.6Q90.09-34.8 90.29-34.8L90.29-34.8 99.64-34.85Q102.39-34.9 104.67-33.55 106.94-32.2 108.29-29.93 109.64-27.65 109.64-24.9L109.64-24.9 109.64-10.55Q109.64-7.65 108.24-5.28 106.84-2.9 104.49-1.5 102.14-0.1 99.19-0.05L99.19-0.05ZM96.14-28.8L96.09-6.15 99.19-6.15Q101.04-6.15 102.32-7.45 103.59-8.75 103.59-10.55L103.59-10.55 103.59-24.95Q103.59-26.55 102.42-27.73 101.24-28.9 99.64-28.85L99.64-28.85 96.14-28.8ZM130.14 0.5L130.14 0.5Q127.44 0.5 125.24-0.85 123.04-2.2 121.71-4.48 120.39-6.75 120.39-9.55L120.39-9.55 120.39-25.4Q120.39-28.1 121.71-30.38 123.04-32.65 125.26-34 127.49-35.35 130.14-35.35L130.14-35.35Q132.89-35.35 135.11-34.02 137.34-32.7 138.64-30.45 139.94-28.2 139.94-25.4L139.94-25.4 139.94-23.1Q139.94-22.9 139.69-22.9L139.69-22.9 134.09-22.9Q133.89-22.9 133.89-23.1L133.89-23.1 133.89-25Q133.89-26.9 132.81-28.15 131.74-29.4 130.14-29.4L130.14-29.4Q128.69-29.4 127.56-28.2 126.44-27 126.44-25.4L126.44-25.4 126.44-9.55Q126.44-7.9 127.54-6.73 128.64-5.55 130.14-5.55L130.14-5.55Q131.74-5.55 132.81-6.7 133.89-7.85 133.89-9.55L133.89-9.55 133.89-12 130.39-12Q130.14-12 130.14-12.25L130.14-12.25 130.14-17.85Q130.14-18.1 130.39-18.1L130.39-18.1 139.74-18.1Q139.94-18.1 139.94-17.85L139.94-17.85 139.94-9.55Q139.94-6.75 138.61-4.48 137.29-2.2 135.09-0.85 132.89 0.5 130.14 0.5ZM152.73 0.5L152.73 0.5Q150.03 0.5 147.81-0.88 145.58-2.25 144.23-4.53 142.88-6.8 142.88-9.55L142.88-9.55 142.93-25.4Q142.93-28.15 144.26-30.4 145.58-32.65 147.83-34 150.08-35.35 152.73-35.35L152.73-35.35Q155.43-35.35 157.63-34 159.83-32.65 161.16-30.4 162.48-28.15 162.48-25.4L162.48-25.4 162.53-9.55Q162.53-6.8 161.21-4.53 159.88-2.25 157.66-0.88 155.43 0.5 152.73 0.5ZM152.73-5.55L152.73-5.55Q154.23-5.55 155.36-6.78 156.48-8 156.48-9.55L156.48-9.55 156.43-25.4Q156.43-27.05 155.38-28.2 154.33-29.35 152.73-29.35L152.73-29.35Q151.18-29.35 150.08-28.23 148.98-27.1 148.98-25.4L148.98-25.4 148.98-9.55Q148.98-7.9 150.08-6.73 151.18-5.55 152.73-5.55ZM175.58 0.5L175.58 0.5Q172.88 0.5 170.66-0.88 168.43-2.25 167.08-4.53 165.73-6.8 165.73-9.55L165.73-9.55 165.78-25.4Q165.78-28.15 167.11-30.4 168.43-32.65 170.68-34 172.93-35.35 175.58-35.35L175.58-35.35Q178.28-35.35 180.48-34 182.68-32.65 184.01-30.4 185.33-28.15 185.33-25.4L185.33-25.4 185.38-9.55Q185.38-6.8 184.06-4.53 182.73-2.25 180.51-0.88 178.28 0.5 175.58 0.5ZM175.58-5.55L175.58-5.55Q177.08-5.55 178.21-6.78 179.33-8 179.33-9.55L179.33-9.55 179.28-25.4Q179.28-27.05 178.23-28.2 177.18-29.35 175.58-29.35L175.58-29.35Q174.03-29.35 172.93-28.23 171.83-27.1 171.83-25.4L171.83-25.4 171.83-9.55Q171.83-7.9 172.93-6.73 174.03-5.55 175.58-5.55ZM198.38-0.05L189.43 0Q189.18 0 189.18-0.25L189.18-0.25 189.28-34.6Q189.28-34.8 189.48-34.8L189.48-34.8 198.83-34.85Q201.58-34.9 203.85-33.55 206.13-32.2 207.48-29.93 208.83-27.65 208.83-24.9L208.83-24.9 208.83-10.55Q208.83-7.65 207.43-5.28 206.03-2.9 203.68-1.5 201.33-0.1 198.38-0.05L198.38-0.05ZM195.33-28.8L195.28-6.15 198.38-6.15Q200.23-6.15 201.5-7.45 202.78-8.75 202.78-10.55L202.78-10.55 202.78-24.95Q202.78-26.55 201.6-27.73 200.43-28.9 198.83-28.85L198.83-28.85 195.33-28.8ZM218.68 0L213.03 0Q212.78 0 212.78-0.25L212.78-0.25 212.83-34.6Q212.83-34.8 213.03-34.8L213.03-34.8 218.63-34.8Q218.83-34.8 218.83-34.6L218.83-34.6 218.88-0.25Q218.88 0 218.68 0L218.68 0ZM239.62 0L223.47 0Q223.27 0 223.27-0.25L223.27-0.25 223.32-34.6Q223.32-34.8 223.52-34.8L223.52-34.8 239.57-34.8Q239.77-34.8 239.77-34.55L239.77-34.55 239.77-28.95Q239.77-28.75 239.57-28.75L239.57-28.75 229.32-28.75 229.32-20.95 239.57-20.95Q239.77-20.95 239.77-20.75L239.77-20.75 239.82-15.1Q239.82-14.9 239.62-14.9L239.62-14.9 229.32-14.9 229.32-6.15 239.62-6.15Q239.82-6.15 239.82-5.9L239.82-5.9 239.82-0.2Q239.82 0 239.62 0L239.62 0ZM252.47 0.5L252.47 0.5Q249.77 0.5 247.54-0.88 245.32-2.25 244-4.53 242.67-6.8 242.67-9.55L242.67-9.55 242.67-11.85Q242.67-12.1 242.92-12.1L242.92-12.1 248.52-12.1Q248.72-12.1 248.72-11.85L248.72-11.85 248.72-9.55Q248.72-7.9 249.82-6.73 250.92-5.55 252.47-5.55L252.47-5.55Q254.02-5.55 255.12-6.75 256.22-7.95 256.22-9.55L256.22-9.55Q256.22-11.4 253.82-12.75L253.82-12.75Q253.02-13.2 251.32-14.15 249.62-15.1 248.12-15.95L248.12-15.95Q245.37-17.55 244.04-19.98 242.72-22.4 242.72-25.45L242.72-25.45Q242.72-28.25 244.07-30.48 245.42-32.7 247.65-34 249.87-35.3 252.47-35.3L252.47-35.3Q255.12-35.3 257.35-33.98 259.57-32.65 260.89-30.43 262.22-28.2 262.22-25.45L262.22-25.45 262.22-21.35Q262.22-21.15 262.02-21.15L262.02-21.15 256.42-21.15Q256.22-21.15 256.22-21.35L256.22-21.35 256.17-25.45Q256.17-27.2 255.07-28.3 253.97-29.4 252.47-29.4L252.47-29.4Q250.92-29.4 249.82-28.23 248.72-27.05 248.72-25.45L248.72-25.45Q248.72-23.8 249.42-22.7 250.12-21.6 251.97-20.6L251.97-20.6Q252.22-20.45 252.94-20.08 253.67-19.7 254.52-19.23 255.37-18.75 256.05-18.4 256.72-18.05 256.87-17.95L256.87-17.95Q259.37-16.55 260.82-14.53 262.27-12.5 262.27-9.55L262.27-9.55Q262.27-6.7 260.94-4.42 259.62-2.15 257.39-0.83 255.17 0.5 252.47 0.5Z" opacity="1" transform="matrix(1,0,0,1,0,0)" fill="#ff585f" class="slogan-text-1" data-fill-palette-color="secondary" id="text-1"></path></svg></g></svg></g></svg></g></svg></g><g></g></svg></g><defs></defs></svg><rect width="395.52" height="137.56184458859067" fill="none" stroke="none" visibility="hidden"></rect></g></svg></g></svg>